<?xml version="1.0" encoding="UTF-8"?>
<svg width="1200" height="260" viewBox="0 0 1200 260" fill="none" xmlns="http://www.w3.org/2000/svg" role="img" aria-label="JC banner">
  <defs>
    <linearGradient id="bg" x1="0" y1="0" x2="1200" y2="260" gradientUnits="userSpaceOnUse">
      <stop stop-color="#F8FAFC"/>
      <stop offset="1" stop-color="#EEF2FF"/>
    </linearGradient>
    <linearGradient id="accent" x1="0" y1="0" x2="0" y2="260" gradientUnits="userSpaceOnUse">
      <stop stop-color="#111827" stop-opacity="0.10"/>
      <stop offset="1" stop-color="#111827" stop-opacity="0.02"/>
    </linearGradient>
    <filter id="softShadow" x="-20" y="-20" width="1240" height="300" filterUnits="userSpaceOnUse" color-interpolation-filters="sRGB">
      <feDropShadow dx="0" dy="10" stdDeviation="12" flood-color="#111827" flood-opacity="0.10"/>
    </filter>
    <pattern id="dots" x="0" y="0" width="28" height="28" patternUnits="userSpaceOnUse">
      <circle cx="3" cy="3" r="1.2" fill="#111827" fill-opacity="0.06"/>
    </pattern>
  </defs>

  <rect x="0" y="0" width="1200" height="260" rx="26" fill="url(#bg)"/>
  <rect x="0" y="0" width="1200" height="260" rx="26" fill="url(#dots)"/>
  <rect x="0" y="0" width="1200" height="260" rx="26" fill="url(#accent)"/>

  <!-- Accent bars -->
  <rect x="56" y="56" width="6" height="148" rx="3" fill="#111827" fill-opacity="0.16"/>
  <rect x="72" y="56" width="2" height="148" rx="1" fill="#111827" fill-opacity="0.10"/>

  <!-- Title card -->
  <g filter="url(#softShadow)">
    <rect x="108" y="64" width="1036" height="132" rx="22" fill="#FFFFFF" fill-opacity="0.70"/>
    <rect x="108" y="64" width="1036" height="132" rx="22" stroke="#111827" stroke-opacity="0.07"/>
  </g>

  <text x="152" y="124" font-family="Inter, ui-sans-serif, system-ui, -apple-system, Segoe UI, Roboto, Helvetica, Arial, 'Apple Color Emoji','Segoe UI Emoji'"
        font-size="52" font-weight="750" fill="#111827">JC</text>

  <text x="152" y="162" font-family="Inter, ui-sans-serif, system-ui, -apple-system, Segoe UI, Roboto, Helvetica, Arial"
        font-size="18" font-weight="500" fill="#111827" fill-opacity="0.72">
    Interpretable ML · reglas, segmentos y regiones · tabular-first
  </text>

  <!-- Subtle right-side glyph -->
  <g transform="translate(990 84)" fill="#111827" fill-opacity="0.08">
    <path d="M28 0C43.464 0 56 12.536 56 28C56 43.464 43.464 56 28 56C12.536 56 0 43.464 0 28C0 12.536 12.536 0 28 0ZM28 7C16.402 7 7 16.402 7 28C7 39.598 16.402 49 28 49C39.598 49 49 39.598 49 28C49 16.402 39.598 7 28 7Z"/>
    <path d="M85 7C69.536 7 57 19.536 57 35C57 50.464 69.536 63 85 63C100.464 63 113 50.464 113 35C113 19.536 100.464 7 85 7ZM85 14C96.598 14 106 23.402 106 35C106 46.598 96.598 56 85 56C73.402 56 64 46.598 64 35C64 23.402 73.402 14 85 14Z"/>
  </g>
</svg>
